<svg width="442" height="135" viewBox="0 0 442 135" fill="none" xmlns="http://www.w3.org/2000/svg">
<path d="M155.152 80.296C152.976 79.592 150.288 79.24 147.088 79.24C143.888 79.24 141.2 79.592 139.024 80.296C136.848 80.936 134.832 82.184 132.976 84.04C131.184 85.832 129.84 88.488 128.944 92.008C128.048 95.464 127.6 99.848 127.6 105.16C127.6 110.472 128.048 114.888 128.944 118.408C129.84 121.864 131.184 124.52 132.976 126.376C134.832 128.168 136.848 129.416 139.024 130.12C141.2 130.76 143.888 131.08 147.088 131.08C150.288 131.08 152.976 130.76 155.152 130.12C157.328 129.416 159.312 128.168 161.104 126.376C162.96 124.52 164.336 121.864 165.232 118.408C166.128 114.888 166.576 110.472 166.576 105.16C166.576 99.848 166.128 95.464 165.232 92.008C164.336 88.488 162.96 85.832 161.104 84.04C159.312 82.184 157.328 80.936 155.152 80.296ZM164.272 127.144C160.816 131.688 155.088 133.96 147.088 133.96C139.088 133.96 133.36 131.688 129.904 127.144C126.448 122.6 124.72 115.272 124.72 105.16C124.72 95.048 126.448 87.72 129.904 83.176C133.36 78.632 139.088 76.36 147.088 76.36C155.088 76.36 160.816 78.632 164.272 83.176C167.728 87.72 169.456 95.048 169.456 105.16C169.456 115.272 167.728 122.6 164.272 127.144ZM185.339 133V77.32H188.219L219.515 127.72V77.32H222.395V133H219.515L188.219 82.504V133H185.339ZM276.651 77.32V80.2H256.491V133H253.611V80.2H233.451V77.32H276.651ZM292.802 130.12H324.098L304.418 83.752L283.49 133H280.418L304.418 76.36L328.418 133H292.802V130.12ZM342.154 127.144C338.698 122.6 336.97 115.272 336.97 105.16C336.97 95.048 338.698 87.72 342.154 83.176C345.61 78.632 351.338 76.36 359.338 76.36C367.338 76.36 373.098 78.568 376.618 82.984L374.506 84.904C371.69 81.128 366.634 79.24 359.338 79.24C356.138 79.24 353.45 79.592 351.274 80.296C349.098 80.936 347.082 82.184 345.226 84.04C343.434 85.832 342.09 88.488 341.194 92.008C340.298 95.464 339.85 99.848 339.85 105.16C339.85 110.472 340.298 114.888 341.194 118.408C342.09 121.864 343.434 124.52 345.226 126.376C347.082 128.168 349.098 129.416 351.274 130.12C353.45 130.76 356.138 131.08 359.338 131.08C366.634 131.08 371.69 129.192 374.506 125.416L376.618 127.336C373.098 131.752 367.338 133.96 359.338 133.96C351.338 133.96 345.61 131.688 342.154 127.144ZM426.933 77.32V80.2H406.773V133H403.893V80.2H383.733V77.32H426.933Z" fill="black"/>
<g clip-path="url(#clip0_22_68)">
<path d="M110.99 92.6891C102.2 112.27 83.6201 125.773 62.1101 125.773C32.1301 125.773 7.82007 99.5326 7.82007 67.1717C7.82007 34.8109 32.1201 8.57031 62.1101 8.57031C83.9601 8.57031 102.79 22.5163 111.4 42.6043" stroke="#231815" stroke-width="2" stroke-miterlimit="10"/>
<path d="M118.21 40.3919C108.69 17.2384 87.21 1.07959 62.23 1.07959C28.41 1.07959 1 30.6663 1 67.1722C1 103.678 28.41 133.265 62.23 133.265C86.74 133.265 107.87 117.721 117.66 95.2693" stroke="#231815" stroke-width="2" stroke-miterlimit="10"/>
<path d="M104.3 90.0986C96.5099 106.808 80.4899 118.282 61.9799 118.282C35.8299 118.282 14.6299 95.3985 14.6299 67.1718C14.6299 38.9451 35.8299 16.0615 61.9799 16.0615C80.7099 16.0615 96.8899 27.7948 104.57 44.8279" stroke="#231815" stroke-width="2" stroke-miterlimit="10"/>
<path d="M111.4 42.6043C102.79 22.5163 83.9601 8.57031 62.1101 8.57031C32.1201 8.57031 7.81006 34.8109 7.81006 67.1717C7.81006 99.5326 32.1201 125.773 62.1001 125.773" stroke="#231815" stroke-width="2" stroke-miterlimit="10"/>
<path d="M96.96 47.3217C90.33 33.7103 77.11 24.4165 61.87 24.4165C39.99 24.4165 22.25 43.5653 22.25 67.1829C22.25 90.8005 39.99 109.949 61.87 109.949C77.04 109.949 90.22 100.742 96.87 87.2168" stroke="#231815" stroke-width="2" stroke-miterlimit="10"/>
<path d="M61.87 109.939C39.99 109.939 22.25 90.7897 22.25 67.1721C22.25 43.5545 39.99 24.4165 61.87 24.4165C77.11 24.4165 90.33 33.7103 96.96 47.3217" stroke="#231815" stroke-width="2" stroke-miterlimit="10"/>
<path d="M104.58 44.8279C96.8999 27.7948 80.7099 16.0615 61.9899 16.0615C35.8399 16.0615 14.6399 38.9451 14.6399 67.1718C14.6399 95.3985 35.8399 118.282 61.9899 118.282" stroke="#231815" stroke-width="2" stroke-miterlimit="10"/>
<path d="M107.41 104.52C114.186 104.52 119.68 98.5899 119.68 91.2752C119.68 83.9605 114.186 78.0308 107.41 78.0308C100.633 78.0308 95.1399 83.9605 95.1399 91.2752C95.1399 98.5899 100.633 104.52 107.41 104.52Z" fill="#609633"/>
<path d="M59.6001 76.39C64.3166 76.39 68.1401 72.2629 68.1401 67.1718C68.1401 62.0807 64.3166 57.9536 59.6001 57.9536C54.8835 57.9536 51.0601 62.0807 51.0601 67.1718C51.0601 72.2629 54.8835 76.39 59.6001 76.39Z" fill="#972826"/>
</g>
<defs>
<clipPath id="clip0_22_68">
<rect width="119.68" height="134.344" fill="white"/>
</clipPath>
</defs>
</svg>
