<svg width="363" height="127" viewBox="0 0 363 127" fill="none" xmlns="http://www.w3.org/2000/svg">
<path d="M147.968 90.864H119.456L148.832 61.68H116.384V123.12H153.632V126H113.504V58.8H155.84L126.464 87.984H147.968V90.864ZM170.545 61.68V58.8H234.769L210.289 126.096L197.809 91.92L185.425 126.096L160.945 58.8H164.017L185.425 117.648L197.809 83.472L210.289 117.648L230.641 61.68H170.545ZM243.863 75.408C243.863 69.2 245.431 64.72 248.567 61.968C251.703 59.216 256.791 57.84 263.831 57.84C268.759 57.84 272.727 59.12 275.735 61.68C278.743 64.24 280.919 68.144 282.263 73.392L273.335 80.112H268.631L278.999 72.336C277.655 68.048 275.703 65.04 273.143 63.312C270.647 61.584 267.543 60.72 263.831 60.72C261.271 60.72 259.095 60.88 257.303 61.2C255.575 61.52 253.815 62.16 252.023 63.12C250.295 64.016 248.983 65.488 248.087 67.536C247.191 69.584 246.743 72.208 246.743 75.408C246.743 78.224 248.023 80.72 250.583 82.896C253.207 85.072 256.375 86.928 260.087 88.464C263.799 90 267.511 91.568 271.223 93.168C274.999 94.768 278.167 96.816 280.727 99.312C283.351 101.808 284.663 104.688 284.663 107.952C284.663 114.352 283.063 119.12 279.863 122.256C276.727 125.392 271.319 126.96 263.639 126.96C257.367 126.96 252.439 125.712 248.855 123.216C245.271 120.656 242.807 116.72 241.463 111.408L244.151 110.256C245.431 115.44 247.607 119.056 250.679 121.104C253.815 123.088 258.135 124.08 263.639 124.08C269.783 124.08 274.327 122.896 277.271 120.528C280.279 118.16 281.783 113.968 281.783 107.952C281.783 105.136 280.471 102.64 277.847 100.464C275.287 98.288 272.119 96.432 268.343 94.896C264.631 93.36 260.919 91.792 257.207 90.192C253.495 88.592 250.327 86.544 247.703 84.048C245.143 81.552 243.863 78.672 243.863 75.408Z" fill="black"/>
<rect x="93.0186" width="2.98136" height="99.2514" fill="#121111"/>
<rect x="79.9004" width="2.98136" height="99.2514" fill="#121111"/>
<rect x="86.4595" width="2.98136" height="99.2514" fill="#121111"/>
<rect x="73.3413" width="2.98136" height="99.2514" fill="#121111"/>
<path d="M0 33.9716V1.40771L95.9999 93.436V126L0 33.9716Z" fill="#121111"/>
<path d="M1 89V126H40L1 89Z" fill="#619B27"/>
</svg>
