<svg width="249" height="129" viewBox="0 0 249 129" fill="none" xmlns="http://www.w3.org/2000/svg">
<rect width="27" height="129" fill="#121111"/>
<circle cx="48.5" cy="35.5" r="34.5" stroke="#121111" stroke-width="2"/>
<circle cx="48.5" cy="93.5" r="34.5" stroke="#121111" stroke-width="2"/>
<circle cx="48" cy="36" r="27" stroke="#121111" stroke-width="2"/>
<circle cx="48" cy="94" r="27" stroke="#121111" stroke-width="2"/>
<circle cx="48.5" cy="35.5" r="21.5" stroke="#121111" stroke-width="2"/>
<circle cx="48.5" cy="93.5" r="21.5" stroke="#121111" stroke-width="2"/>
<circle cx="48" cy="36" r="15" stroke="#121111" stroke-width="2"/>
<circle cx="48" cy="36" r="10" fill="#619B27"/>
<circle cx="48" cy="94" r="10" fill="#9D2727"/>
<circle cx="48" cy="94" r="15" stroke="#121111" stroke-width="2"/>
<path d="M133.184 103.12V106H101.12V50.32H104V103.12H133.184ZM172.277 53.296C170.101 52.592 167.413 52.24 164.213 52.24C161.013 52.24 158.325 52.592 156.149 53.296C153.973 53.936 151.957 55.184 150.101 57.04C148.309 58.832 146.965 61.488 146.069 65.008C145.173 68.464 144.725 72.848 144.725 78.16C144.725 83.472 145.173 87.888 146.069 91.408C146.965 94.864 148.309 97.52 150.101 99.376C151.957 101.168 153.973 102.416 156.149 103.12C158.325 103.76 161.013 104.08 164.213 104.08C167.413 104.08 170.101 103.76 172.277 103.12C174.453 102.416 176.437 101.168 178.229 99.376C180.085 97.52 181.461 94.864 182.357 91.408C183.253 87.888 183.701 83.472 183.701 78.16C183.701 72.848 183.253 68.464 182.357 65.008C181.461 61.488 180.085 58.832 178.229 57.04C176.437 55.184 174.453 53.936 172.277 53.296ZM181.397 100.144C177.941 104.688 172.213 106.96 164.213 106.96C156.213 106.96 150.485 104.688 147.029 100.144C143.573 95.6 141.845 88.272 141.845 78.16C141.845 68.048 143.573 60.72 147.029 56.176C150.485 51.632 156.213 49.36 164.213 49.36C172.213 49.36 177.941 51.632 181.397 56.176C184.853 60.72 186.581 68.048 186.581 78.16C186.581 88.272 184.853 95.6 181.397 100.144ZM224.832 68.56L237.6 57.904C234.784 54.128 229.728 52.24 222.432 52.24C219.232 52.24 216.544 52.592 214.368 53.296C212.192 53.936 210.176 55.184 208.32 57.04C206.528 58.832 205.184 61.488 204.288 65.008C203.392 68.464 202.944 72.848 202.944 78.16C202.944 83.472 203.392 87.888 204.288 91.408C205.184 94.864 206.528 97.52 208.32 99.376C210.176 101.168 212.192 102.416 214.368 103.12C216.544 103.76 219.232 104.08 222.432 104.08C229.664 104.08 234.688 102.224 237.504 98.512V81.52H240.384V106.864C240.384 119.088 234.784 125.2 223.584 125.2H212.352V122.32H223.584C228.384 122.32 231.904 121.04 234.144 118.48C236.384 115.984 237.504 111.184 237.504 104.08V102.64C234.048 105.52 229.024 106.96 222.432 106.96C214.432 106.96 208.704 104.688 205.248 100.144C201.792 95.6 200.064 88.272 200.064 78.16C200.064 68.048 201.792 60.72 205.248 56.176C208.704 51.632 214.432 49.36 222.432 49.36C231.712 49.36 238.016 52.4 241.344 58.48L229.344 68.56H224.832Z" fill="black"/>
</svg>
