<svg width="469" height="129" viewBox="0 0 469 129" fill="none" xmlns="http://www.w3.org/2000/svg">
<path d="M100.608 57.8H137.376V96.104C137.376 106.344 135.616 113.896 132.096 118.76C128.576 123.56 122.88 125.96 115.008 125.96C107.136 125.96 101.44 123.56 97.92 118.76C94.4 113.896 92.64 106.344 92.64 96.104V57.8H95.52V96.104C95.52 101.416 95.968 105.896 96.864 109.544C97.76 113.128 99.104 115.88 100.896 117.8C102.688 119.72 104.704 121.096 106.944 121.928C109.184 122.696 111.872 123.08 115.008 123.08C118.144 123.08 120.832 122.696 123.072 121.928C125.312 121.096 127.328 119.72 129.12 117.8C130.912 115.88 132.256 113.128 133.152 109.544C134.048 105.896 134.496 101.416 134.496 96.104V60.68H100.608V57.8ZM153.551 74.408C153.551 68.2 155.119 63.72 158.255 60.968C161.391 58.216 166.479 56.84 173.519 56.84C178.447 56.84 182.415 58.12 185.423 60.68C188.431 63.24 190.607 67.144 191.951 72.392L183.023 79.112H178.319L188.687 71.336C187.343 67.048 185.391 64.04 182.831 62.312C180.335 60.584 177.231 59.72 173.519 59.72C170.959 59.72 168.783 59.88 166.991 60.2C165.263 60.52 163.503 61.16 161.711 62.12C159.983 63.016 158.671 64.488 157.775 66.536C156.879 68.584 156.431 71.208 156.431 74.408C156.431 77.224 157.711 79.72 160.271 81.896C162.895 84.072 166.063 85.928 169.775 87.464C173.487 89 177.199 90.568 180.911 92.168C184.687 93.768 187.855 95.816 190.415 98.312C193.039 100.808 194.351 103.688 194.351 106.952C194.351 113.352 192.751 118.12 189.551 121.256C186.415 124.392 181.007 125.96 173.327 125.96C167.055 125.96 162.127 124.712 158.543 122.216C154.959 119.656 152.495 115.72 151.151 110.408L153.839 109.256C155.119 114.44 157.295 118.056 160.367 120.104C163.503 122.088 167.823 123.08 173.327 123.08C179.471 123.08 184.015 121.896 186.959 119.528C189.967 117.16 191.471 112.968 191.471 106.952C191.471 104.136 190.159 101.64 187.535 99.464C184.975 97.288 181.807 95.432 178.031 93.896C174.319 92.36 170.607 90.792 166.895 89.192C163.183 87.592 160.015 85.544 157.391 83.048C154.831 80.552 153.551 77.672 153.551 74.408ZM212.259 125H209.379V57.8H212.259V125ZM238.711 122.12H268.471L234.103 62.696V125H231.223V57.8H234.583L270.487 119.912V57.8H273.367V125H238.711V122.12ZM326.812 89.864H298.3L327.676 60.68H295.228V122.12H332.476V125H292.348V57.8H334.684L305.308 86.984H326.812V89.864ZM345.644 74.408C345.644 68.2 347.212 63.72 350.348 60.968C353.484 58.216 358.572 56.84 365.612 56.84C370.54 56.84 374.508 58.12 377.516 60.68C380.524 63.24 382.7 67.144 384.044 72.392L375.116 79.112H370.412L380.78 71.336C379.436 67.048 377.484 64.04 374.924 62.312C372.428 60.584 369.324 59.72 365.612 59.72C363.052 59.72 360.876 59.88 359.084 60.2C357.356 60.52 355.596 61.16 353.804 62.12C352.076 63.016 350.764 64.488 349.868 66.536C348.972 68.584 348.524 71.208 348.524 74.408C348.524 77.224 349.804 79.72 352.364 81.896C354.988 84.072 358.156 85.928 361.868 87.464C365.58 89 369.292 90.568 373.004 92.168C376.78 93.768 379.948 95.816 382.508 98.312C385.132 100.808 386.444 103.688 386.444 106.952C386.444 113.352 384.844 118.12 381.644 121.256C378.508 124.392 373.1 125.96 365.42 125.96C359.148 125.96 354.22 124.712 350.636 122.216C347.052 119.656 344.588 115.72 343.244 110.408L345.932 109.256C347.212 114.44 349.388 118.056 352.46 120.104C355.596 122.088 359.916 123.08 365.42 123.08C371.564 123.08 376.108 121.896 379.052 119.528C382.06 117.16 383.564 112.968 383.564 106.952C383.564 104.136 382.252 101.64 379.628 99.464C377.068 97.288 373.9 95.432 370.124 93.896C366.412 92.36 362.7 90.792 358.988 89.192C355.276 87.592 352.108 85.544 349.484 83.048C346.924 80.552 345.644 77.672 345.644 74.408ZM399.457 74.408C399.457 68.2 401.025 63.72 404.161 60.968C407.297 58.216 412.385 56.84 419.425 56.84C424.353 56.84 428.321 58.12 431.329 60.68C434.337 63.24 436.513 67.144 437.857 72.392L428.929 79.112H424.225L434.593 71.336C433.249 67.048 431.297 64.04 428.737 62.312C426.241 60.584 423.137 59.72 419.425 59.72C416.865 59.72 414.689 59.88 412.897 60.2C411.169 60.52 409.409 61.16 407.617 62.12C405.889 63.016 404.577 64.488 403.681 66.536C402.785 68.584 402.337 71.208 402.337 74.408C402.337 77.224 403.617 79.72 406.177 81.896C408.801 84.072 411.969 85.928 415.681 87.464C419.393 89 423.105 90.568 426.817 92.168C430.593 93.768 433.761 95.816 436.321 98.312C438.945 100.808 440.257 103.688 440.257 106.952C440.257 113.352 438.657 118.12 435.457 121.256C432.321 124.392 426.913 125.96 419.233 125.96C412.961 125.96 408.033 124.712 404.449 122.216C400.865 119.656 398.401 115.72 397.057 110.408L399.745 109.256C401.025 114.44 403.201 118.056 406.273 120.104C409.409 122.088 413.729 123.08 419.233 123.08C425.377 123.08 429.921 121.896 432.865 119.528C435.873 117.16 437.377 112.968 437.377 106.952C437.377 104.136 436.065 101.64 433.441 99.464C430.881 97.288 427.713 95.432 423.937 93.896C420.225 92.36 416.513 90.792 412.801 89.192C409.089 87.592 405.921 85.544 403.297 83.048C400.737 80.552 399.457 77.672 399.457 74.408Z" fill="black"/>
<rect width="27" height="129" fill="#121111"/>
<circle cx="48.5" cy="35.5" r="34.5" stroke="#121111" stroke-width="2"/>
<circle cx="48.5" cy="93.5" r="34.5" stroke="#121111" stroke-width="2"/>
<circle cx="48" cy="36" r="27" stroke="#121111" stroke-width="2"/>
<circle cx="48" cy="94" r="27" stroke="#121111" stroke-width="2"/>
<circle cx="48.5" cy="35.5" r="21.5" stroke="#121111" stroke-width="2"/>
<circle cx="48.5" cy="93.5" r="21.5" stroke="#121111" stroke-width="2"/>
<circle cx="48" cy="36" r="15" stroke="#121111" stroke-width="2"/>
<circle cx="48" cy="36" r="10" fill="#619B27"/>
<circle cx="48" cy="94" r="10" fill="#9D2727"/>
<circle cx="48" cy="94" r="15" stroke="#121111" stroke-width="2"/>
</svg>
