<svg width="303" height="58" viewBox="0 0 303 58" fill="none" xmlns="http://www.w3.org/2000/svg">
<path d="M31.152 4.296C28.976 3.592 26.288 3.24 23.088 3.24C19.888 3.24 17.2 3.592 15.024 4.296C12.848 4.936 10.832 6.184 8.976 8.04C7.184 9.832 5.84 12.488 4.944 16.008C4.048 19.464 3.6 23.848 3.6 29.16C3.6 34.472 4.048 38.888 4.944 42.408C5.84 45.864 7.184 48.52 8.976 50.376C10.832 52.168 12.848 53.416 15.024 54.12C17.2 54.76 19.888 55.08 23.088 55.08C26.288 55.08 28.976 54.76 31.152 54.12C33.328 53.416 35.312 52.168 37.104 50.376C38.96 48.52 40.336 45.864 41.232 42.408C42.128 38.888 42.576 34.472 42.576 29.16C42.576 23.848 42.128 19.464 41.232 16.008C40.336 12.488 38.96 9.832 37.104 8.04C35.312 6.184 33.328 4.936 31.152 4.296ZM40.272 51.144C36.816 55.688 31.088 57.96 23.088 57.96C15.088 57.96 9.36 55.688 5.904 51.144C2.448 46.6 0.72 39.272 0.72 29.16C0.72 19.048 2.448 11.72 5.904 7.17599C9.36 2.632 15.088 0.359997 23.088 0.359997C31.088 0.359997 36.816 2.632 40.272 7.17599C43.728 11.72 45.456 19.048 45.456 29.16C45.456 39.272 43.728 46.6 40.272 51.144ZM61.3388 57V1.32H64.2188L95.5148 51.72V1.32H98.3948V57H95.5148L64.2188 6.504V57H61.3388ZM152.651 1.32V4.2H132.491V57H129.611V4.2H109.451V1.32H152.651ZM168.802 54.12H200.098L180.418 7.752L159.49 57H156.418L180.418 0.359997L204.418 57H168.802V54.12ZM218.154 51.144C214.698 46.6 212.97 39.272 212.97 29.16C212.97 19.048 214.698 11.72 218.154 7.17599C221.61 2.632 227.338 0.359997 235.338 0.359997C243.338 0.359997 249.098 2.568 252.618 6.984L250.506 8.904C247.69 5.128 242.634 3.24 235.338 3.24C232.138 3.24 229.45 3.592 227.274 4.296C225.098 4.936 223.082 6.184 221.226 8.04C219.434 9.832 218.09 12.488 217.194 16.008C216.298 19.464 215.85 23.848 215.85 29.16C215.85 34.472 216.298 38.888 217.194 42.408C218.09 45.864 219.434 48.52 221.226 50.376C223.082 52.168 225.098 53.416 227.274 54.12C229.45 54.76 232.138 55.08 235.338 55.08C242.634 55.08 247.69 53.192 250.506 49.416L252.618 51.336C249.098 55.752 243.338 57.96 235.338 57.96C227.338 57.96 221.61 55.688 218.154 51.144ZM302.933 1.32V4.2H282.773V57H279.893V4.2H259.733V1.32H302.933Z" fill="black"/>
</svg>
